/* XPM */
static char *ae9d08c55de34a65ef7f5a882d3dc853yyZPudCNiB6ulrNW[] = {
/* columns rows colors chars-per-pixel */
"50 50 7 1 ",
"  c #484A50",
". c #C4CDE2",
"X c #898F9D",
"o c #2E3136",
"O c #B0CBEA",
"+ c #7397CF",
"@ c #F6F6F6",
/* pixels */
"                                                  ",
"                                                  ",
"   ............................................   ",
"  .XXXXXXXXXXXXXXXXXXXXXXXXXXXXXXXXXXXXXXXXXXXXX  ",
"  .X. XXXXXXXXXXXXXXXXXXXXXXXXXXXXXXXXXXXXXX. XX  ",
"  .X  XXXXXXXXXXXXXXXXXXXXXXXXXXXXXXXXXXXXXX  XX  ",
"  .XXXXXXXXXXXXXXXXXXXXXXXXXXXXXXXXXXXXXXXXXXXXX  ",
"  .XXXXXXXXXXXXXXXXXXXXXXXXXXXXXXXXXXXXXXXXXXXXX  ",
"  .XXXXXXXXXXXXXXXXXXXXXXXXXXXXXXXXXXXXXXXXXXXXX  ",
"  .XXXXXXXXXXXXXXXXXXXXXXXXXXXXXXXXXXXXXXXXXXXXX  ",
"  .XXXXXXXXXXXXXXXXXXXXXXXXXXXXXXXXXXXXXXXXXXXXX  ",
"  .XXXXXXXXXXXXXXXXXXXXXXXXXXXXXXXXXXXXXXXXXXXXX  ",
"  .XXXXXXXXXXXXXXXXXXXXXXXXXXXXXXXXXXXXXXXXXXXXX  ",
"  .XXXXXXXXXXXXXXXXXXXXXXXXXXXXXXXXXXXXXXXXXXXXX  ",
"  .XXXXXXXXXXXXXXXXXXXXXXXXXXXXXXXXXXXXXXXXXXXXX  ",
"  .XXXXXXXXXXXXXXXXXXXXXXXXXXXXXXXXXXXXXXXXXXXXX  ",
"  .XXXXXXXXXXXXXXXXXXXXXXXXXXXXXXXXXXXXXXXXXXXXX  ",
"  .XXXXXXXXXXXXXXXXXXXXXXXXXXXXXXXXXXXXXXXXXXXXX  ",
"  .XXXXXXXXXXXXXXXXXXXXXXXXXXXXXXXXXXXXXXXXXXXXX  ",
"  .XXXXXXXXXXXXXXooooooooXXXXXXXXXXXXXXXXXXXXXXX  ",
"  .XXXXXXXXXXXoooOOOOOOOOooooXXXXXXooXXXXXXXXXXX  ",
"  .XXXXXXXXXXoOOO++O++O++OOOOooXXXoOOoXXXXXXXXXX  ",
"  .XXXXXXXXXoO+++++O+O+++++O+OOoXoO++OoXXXXXXXXX  ",
"  .XXXXXXXXoO++++++O++++++O++++OoO+O++oXXXXXXXXX  ",
"  .XXXXXXXoO+++@o++O++++++++++++++O++++oXXXXXXXX  ",
"  .XXXXXXXo++++oo++O+++O+++++++O+++OOO+oXXXXXXXX  ",
"  .XXXXXXXo++++++++O++O++++O++O+++O++++oXXXXXXXX  ",
"  .XXXXXXXXo+++++++O++++++O+++++o++O++oXXXXXXXXX  ",
"  .XXXXXXXXXo++++++O+++++++++O+oXo++O+oXXXXXXXXX  ",
"  .XXXXXXXXXXo+++++O++O+++++OooXXXo++oXXXXXXXXXX  ",
"  .XXXXXXXXXXXooo+O++O+++ooooXXXXXXooXXXXXXXXXXX  ",
"  .XXXXXXXXXXXXXXooooooooXXXXXXXXXXXXXXXXXXXXXXX  ",
"  .XXXXXXXXXXXXXXXXXXXXXXXXXXXXXXXXXXXXXXXXXXXXX  ",
"  .XXXXXXXXXXXXXXXXXXXXXXXXXXXXXXXXXXXXXXXXXXXXX  ",
"  .XXXXXXXXXXXXXXXXXXXXXXXXXXXXXXXXXXXXXXXXXXXXX  ",
"  .XXXXXXXXXXXXXXXXXXXXXXXXXXXXXXXXXXXXXXXXXXXXX  ",
"  .XXXXXXXXXXXXXXXXXXXXXXXXXXXXXXXXXXXXXXXXXXXXX  ",
"  .XXXXXXXXXXXXXXXXXXXXXXXXXXXXXXXXXXXXXXXXXXXXX  ",
"  .XXXXXXXXXXXXXXXXXXXXXXXXXXXXXXXXXXXXXXXXXXXXX  ",
"  .XXXXXXXXXXXXXXXXXXXXXXXXXXXXXXXXXXXXXXXXXXXXX  ",
"  .XXXXXXXXXXXXXXXXXXXXXXXXXXXXXXXXXXXXXXXXXXXXX  ",
"  .XXXXXXXXXXXXXXXXXXXXXXXXXXXXXXXXXXXXXXXXXXXXX  ",
"  .XXXXXXXXXXXXXXXXXXXXXXXXXXXXXXXXXXXXXXXXXXXXX  ",
"  .XXXXXXXXXXXXXXXXXXXXXXXXXXXXXXXXXXXXXXXXXXXXX  ",
"  .X. XXXXXXXXXXXXXXXXXXXXXXXXXXXXXXXXXXXXXX. XX  ",
"  .X  XXXXXXXXXXXXXXXXXXXXXXXXXXXXXXXXXXXXXX  XX  ",
"  .XXXXXXXXXXXXXXXXXXXXXXXXXXXXXXXXXXXXXXXXXXXXX  ",
"   XXXXXXXXXXXXXXXXXXXXXXXXXXXXXXXXXXXXXXXXXXXX   ",
"                                                  ",
"                                                  "
};
