/* XPM */
static char *_4dd46eca7404b56b2020d18b7fca528Jpi7uBemqd6rLIPe[] = {
/* columns rows colors chars-per-pixel */
"50 50 5 1 ",
"  c None",
". c #2E3136",
"X c #7397CF",
"o c #B0CBEA",
"O c #F6F6F6",
/* pixels */
"                                                  ",
"                                                  ",
"                                                  ",
"                                                  ",
"                                                  ",
"                                                  ",
"                                                  ",
"                                                  ",
"                                                  ",
"                                                  ",
"                                                  ",
"                                                  ",
"                                                  ",
"                                                  ",
"                                                  ",
"                                                  ",
"                                                  ",
"                                                  ",
"                                                  ",
"                 ........                         ",
"              ...oooooooo....      ..             ",
"             .oooXXoXXoXXoooo..   .oo.            ",
"            .oXXXXXoXoXXXXXoXoo. .oXXo.           ",
"           .oXXXXXXoXXXXXXoXXXXo.oXoXX.           ",
"          .oXXXO.XXoXXXXXXXXXXXXXXoXXXX.          ",
"          .XXXX..XXoXXXoXXXXXXXoXXXoooX.          ",
"          .XXXXXXXXoXXoXXXXoXXoXXXoXXXX.          ",
"           .XXXXXXXoXXXXXXoXXXXX.XXoXX.           ",
"            .XXXXXXoXXXXXXXXXoX. .XXoX.           ",
"             .XXXXXoXXoXXXXXo..   .XX.            ",
"              ...XoXXoXXX....      ..             ",
"                 ........                         ",
"                                                  ",
"                                                  ",
"                                                  ",
"                                                  ",
"                                                  ",
"                                                  ",
"                                                  ",
"                                                  ",
"                                                  ",
"                                                  ",
"                                                  ",
"                                                  ",
"                                                  ",
"                                                  ",
"                                                  ",
"                                                  ",
"                                                  ",
"                                                  "
};
