/* XPM */
static char *_990b5d9f19d4380bdfd3bcfba29d845XnmUhOg3etAIIY5x[] = {
/* columns rows colors chars-per-pixel */
"50 50 9 1 ",
"  c #484A50",
". c #C4CDE2",
"X c #898F9D",
"o c #2E3136",
"O c #E0E5F1",
"+ c #454850",
"@ c #5E6169",
"# c #BA0000",
"$ c white",
/* pixels */
"                                                  ",
"                                                  ",
"   ............................................   ",
"  .XXXXXXXXXXXXXXXXXXXXXXXXXXXXXXXXXXXXXXXXXXXXX  ",
"  .X. XXXXXXXXXXXXXXXXXXXXXXXXXXXXXXXXXXXXXX. XX  ",
"  .X  XXXXXXXXXXXXXXXXXXXXXXXXXXXXXXXXXXXXXX  XX  ",
"  .XXXXXXXXXXXXXXXXXXXXXXXXXXXXXXXXXXXXXXXXXXXXX  ",
"  .XXXXXXXXXXXXXXXXXXooXXXXXXXXXXXXXXooXXXXXXXXX  ",
"  .XXXXXXXXXXXXXXXXXoO+oXXXXXXXXXXXXo+OoXXXXXXXX  ",
"  .XXXXXXXXXXXXXXXXXoOO+oXXXXXXXXXXo+OOoXXXXXXXX  ",
"  .XXXXXXXXXXXXXXXXXoOOO+oooooooooo+OOOoXXXXXXXX  ",
"  .XXXXXXXXXXXXXXXXXoOO++++++++++++++OOoXXXXXXXX  ",
"  .XXXXXXXXXXXXXXXXXo+++++++@@@@+++++++oXXXXXXXX  ",
"  .XXXXXXXXXXXXXXXXXo+++o++@@@@@@++o+++oXXXXXXXX  ",
"  .XXXXXXXXXXXXXXXXXo++++oo@@@@@@oo++++oXXXXXXXX  ",
"  .XXXXXXXXXXXXXXXXXo++++#$@@@@@@#$++++oXXXXXXXX  ",
"  .XXXXXXXXXXXXXXXXXo+++@##@@++@@##@+++oXXXXXXXX  ",
"  .XXXXXXXXXXXXXXXXXo++@@@@@@++@@@@@@++oXXXXXXXX  ",
"  .XXXXXXXXXXXXXXXXXo+@@@@@@@oo@@@@@@@+oXXXXXXXX  ",
"  .XXXXXXXXXXXXXXXXXo@@@@@@@@@@@@@@@@@@oXXXXXXXX  ",
"  .XXXXXXXXXXXXXXXXXo@@@@@@@@oo@@@@@@@@oXXXXXXXX  ",
"  .XXXXXXXXXXXXXXXXXXo@@@@@@o@@o@@@@@@oXXXXXXXXX  ",
"  .XXXXXXXXXXXXXXXXXXXo@@@@@@@@@@@@@@oXXXXXXXXXX  ",
"  .XXXXXXXXXXXXXXXXXXXXooooooooooooooXXXXXXXXXXX  ",
"  .XXXXXXXXXXXXXXXXXXXo+++++++++++oXXXXXXXXXXXXX  ",
"  .XXXXXXXXXXXXXXXXXXo+++@@@@@@@@@@oXXXXXXXXXXXX  ",
"  .XXXXXXXXXXXXXXXXXo+++@@@@@@@@@@@@oXXXXXXXXXXX  ",
"  .XXXXXXXXXXXXXXXXo+++@@@@@@@@@@@@@oXXXXXXXXXXX  ",
"  .XXXXXXXXXXXXXXXo+++@@@@@@@@@@@@@@oXXXXXXXXXXX  ",
"  .XXXXXXooXXXXXXo+++@@@@@@@@@@@@@@@oXXXXXXXXXXX  ",
"  .XXXXXoOOoXXXXo+++@@@@@@@@@@@@@@@@oXXXXXXXXXXX  ",
"  .XXXXoOOOoXXXXo++@@@@@@@@@@@@@@@@@oXXXXXXXXXXX  ",
"  .XXXo++OOoXXXo++@@@@@@@o@@@@@@@@@oXXXXXXXXXXXX  ",
"  .XXXo+++oXXXXo++@@@@@@@o@@@@@@@@@oXXXXXXXXXXXX  ",
"  .XXXo+++oXXXXo++@@@@@@@o@@@@o@@@@oXXXXXXXXXXXX  ",
"  .XXXo+++oXXXXo++@@@@@@@o@@@@o@@@@oXXXXXXXXXXXX  ",
"  .XXXo++OoXXXXo++@@@@@@@o@@@@o@@@@oXXXXXXXXXXXX  ",
"  .XXXXoO++oXXXo++@@@@@@@o@@@@o@@@@oXXXXXXXXXXXX  ",
"  .XXXXo+++oXXXo++@@@@@@@o@@@@o@@@@oXXXXXXXXXXXX  ",
"  .XXXXXo+++oXXo++@@@@@@@@o@@@o@@@oXXXXXXXXXXXXX  ",
"  .XXXXXo+++Oooo++@@@@@@@@o@@@o@@@oXXXXXXXXXXXXX  ",
"  .XXXXXXo+O+++o++@@@@@@@@o@@@o@@@oXXXXXXXXXXXXX  ",
"  .XXXXXXXooo++o+++@@@@@@@o@@@o@@@oXXXXXXXXXXXXX  ",
"  .XXXXXXXXXXoooo+++@@@@@@o@@@o@@@oXXXXXXXXXXXXX  ",
"  .X. XXXXXXXXXXXoooooooooooooXoooXXXXXXXXXX. XX  ",
"  .X  XXXXXXXXXXXXXXXXXXXXXXXXXXXXXXXXXXXXXX  XX  ",
"  .XXXXXXXXXXXXXXXXXXXXXXXXXXXXXXXXXXXXXXXXXXXXX  ",
"   XXXXXXXXXXXXXXXXXXXXXXXXXXXXXXXXXXXXXXXXXXXX   ",
"                                                  ",
"                                                  "
};
