/* XPM */
static char *result[] = {
/* columns rows colors chars-per-pixel */
"50 50 7 1 ",
"  c #2E3136",
". c #454950",
"X c #5E6169",
"o c #708AC6",
"O c #E0E5F1",
"+ c white",
"@ c None",
/* pixels */
"@@@@@@@@@@@@@@@@@@@@@@@@@@@@@@@@@@@@@@@@@@@@@@@@@@",
"@@@@@@@@@@@@@@@@@@@@@@@@@@@@@@@@@@@@@@@@@@@@@@@@@@",
"@@@@@@@@@@@@@@@@@@@@@@@@@@@@@@@@@@@@@@@@@@@@@@@@@@",
"@@@@@@@@@@@@@@@@@@@@@@@@@@@@@@@@@@@@@@@@@@@@@@@@@@",
"@@@@@@@@@@@@@@@@@@@@@@@@@@@@@@@@@@@@@@@@@@@@@@@@@@",
"@@@@@@@@@@@@@@@@@@@@@@@@@@@@@@@@@@@@@@@@@@@@@@@@@@",
"@@@@@@@@@@@@@@@@@@@@@@@@@@@@@@@@@@@@@@@@@@@@@@@@@@",
"@@@@@@@@@@@@@@@@@@@@@  @@@@@@@@@@@@@@  @@@@@@@@@@@",
"@@@@@@@@@@@@@@@@@@@@ O. @@@@@@@@@@@@ .O @@@@@@@@@@",
"@@@@@@@@@@@@@@@@@@@@ OO. @@@@@@@@@@ .OO @@@@@@@@@@",
"@@@@@@@@@@@@@@@@@@@@ OOO.          .OOO @@@@@@@@@@",
"@@@@@@@@@@@@@@@@@@@@ OO..............OO @@@@@@@@@@",
"@@@@@@@@@@@@@@@@@@@@ .......XXXX....... @@@@@@@@@@",
"@@@@@@@@@@@@@@@@@@@@ ... ..XXXXXX.. ... @@@@@@@@@@",
"@@@@@@@@@@@@@@@@@@@@ ....  XXXXXX  .... @@@@@@@@@@",
"@@@@@@@@@@@@@@@@@@@@ ....o+XXXXXXo+.... @@@@@@@@@@",
"@@@@@@@@@@@@@@@@@@@@ ...XooXX..XXooX... @@@@@@@@@@",
"@@@@@@@@@@@@@@@@@@@@ ..XXXXXX..XXXXXX.. @@@@@@@@@@",
"@@@@@@@@@@@@@@@@@@@@ .XXXXXXX  XXXXXXX. @@@@@@@@@@",
"@@@@@@@@@@@@@@@@@@@@ XXXXXXXXXXXXXXXXXX @@@@@@@@@@",
"@@@@@@@@@@@@@@@@@@@@ XXXXXXXX  XXXXXXXX @@@@@@@@@@",
"@@@@@@@@@@@@@@@@@@@@@ XXXXXX XX XXXXXX @@@@@@@@@@@",
"@@@@@@@@@@@@@@@@@@@@@@ XXXXXXXXXXXXXX @@@@@@@@@@@@",
"@@@@@@@@@@@@@@@@@@@@@@@              @@@@@@@@@@@@@",
"@@@@@@@@@@@@@@@@@@@@@@ ........... @@@@@@@@@@@@@@@",
"@@@@@@@@@@@@@@@@@@@@@ ...XXXXXXXXXX @@@@@@@@@@@@@@",
"@@@@@@@@@@@@@@@@@@@@ ...XXXXXXXXXXXX @@@@@@@@@@@@@",
"@@@@@@@@@@@@@@@@@@@ ...XXXXXXXXXXXXX @@@@@@@@@@@@@",
"@@@@@@@@@@@@@@@@@@ ...XXXXXXXXXXXXXX @@@@@@@@@@@@@",
"@@@@@@@@@  @@@@@@ ...XXXXXXXXXXXXXXX @@@@@@@@@@@@@",
"@@@@@@@@ OO @@@@ ...XXXXXXXXXXXXXXXX @@@@@@@@@@@@@",
"@@@@@@@ OOO @@@@ ..XXXXXXXXXXXXXXXXX @@@@@@@@@@@@@",
"@@@@@@ ..OO @@@ ..XXXXXXX XXXXXXXXX @@@@@@@@@@@@@@",
"@@@@@@ ... @@@@ ..XXXXXXX XXXXXXXXX @@@@@@@@@@@@@@",
"@@@@@@ ... @@@@ ..XXXXXXX XXXX XXXX @@@@@@@@@@@@@@",
"@@@@@@ ... @@@@ ..XXXXXXX XXXX XXXX @@@@@@@@@@@@@@",
"@@@@@@ ..O @@@@ ..XXXXXXX XXXX XXXX @@@@@@@@@@@@@@",
"@@@@@@@ O.. @@@ ..XXXXXXX XXXX XXXX @@@@@@@@@@@@@@",
"@@@@@@@ ... @@@ ..XXXXXXX XXXX XXXX @@@@@@@@@@@@@@",
"@@@@@@@@ ... @@ ..XXXXXXXX XXX XXX @@@@@@@@@@@@@@@",
"@@@@@@@@ ...O   ..XXXXXXXX XXX XXX @@@@@@@@@@@@@@@",
"@@@@@@@@@ .O... ..XXXXXXXX XXX XXX @@@@@@@@@@@@@@@",
"@@@@@@@@@@   .. ...XXXXXXX XXX XXX @@@@@@@@@@@@@@@",
"@@@@@@@@@@@@@    ...XXXXXX XXX XXX @@@@@@@@@@@@@@@",
"@@@@@@@@@@@@@@@@@             @   @@@@@@@@@@@@@@@@",
"@@@@@@@@@@@@@@@@@@@@@@@@@@@@@@@@@@@@@@@@@@@@@@@@@@",
"@@@@@@@@@@@@@@@@@@@@@@@@@@@@@@@@@@@@@@@@@@@@@@@@@@",
"@@@@@@@@@@@@@@@@@@@@@@@@@@@@@@@@@@@@@@@@@@@@@@@@@@",
"@@@@@@@@@@@@@@@@@@@@@@@@@@@@@@@@@@@@@@@@@@@@@@@@@@",
"@@@@@@@@@@@@@@@@@@@@@@@@@@@@@@@@@@@@@@@@@@@@@@@@@@"
};
