/* XPM */
static char *f56d26e6cd5646aedabe1b6fdd4b78d6IUReB8jdB9w3smBs[] = {
/* columns rows colors chars-per-pixel */
"50 50 8 1 ",
"  c #484A50",
". c #C4CDE2",
"X c #898F9D",
"o c #2E3136",
"O c #E0E5F1",
"+ c #B5BCCC",
"@ c white",
"# c #ACCE78",
/* pixels */
"                                                  ",
"                                                  ",
"   ............................................   ",
"  .XXXXXXXXXXXXXXXXXXXXXXXXXXXXXXXXXXXXXXXXXXXXX  ",
"  .X. XXXXXXXXXXXXXXXXXXXXXXXXXXXXXXXXXXXXXX. XX  ",
"  .X  XXXXXXXXXXXXXXXXXXXXXXXXXXXXXXXXXXXXXX  XX  ",
"  .XXXXXXXXXXXXXXXXXXXXXXXXXXXXXXXXXXXXXXXXXXXXX  ",
"  .XXXXXXXXooXXXXXXXXXXXXXXooXXXXXXXXXXXXXXXXXXX  ",
"  .XXXXXXXoO+oXXXXXXXXXXXXo+OoXXXXXXXXXXXXXXXXXX  ",
"  .XXXXXXXoOO+oXXXXXXXXXXo+OOoXXXXXXXXXXXXXXXXXX  ",
"  .XXXXXXXoOOO+oooooooooo+OOOoXXXXXXXXXXXXXXXXXX  ",
"  .XXXXXXXoOO++++++++++++++OOoXXXXXXXXXXXXXXXXXX  ",
"  .XXXXXXXo+++++++OOOO+++++++oXXXXXXXXXXXXXXXXXX  ",
"  .XXXXXXXo++++++OOOOOO++++++oXXXXXXXXXXXXXXXXXX  ",
"  .XXXXXXXo++++ooOOOOOOoo++++oXXXXXXXXXXXXXXXXXX  ",
"  .XXXXXXXo++++@#OOOOOO@#++++oXXXXXXXXXXXXXXXXXX  ",
"  .XXXXXXXo+++O##OO++OO##O+++oXXXXXXXXXXXXXXXXXX  ",
"  .XXXXXXXo++OOOOOO++OOOOOO++oXXXXXXXXXXXXXXXXXX  ",
"  .XXXXXXXo+OOOOOOOooOOOOOOO+oXXXXXXXXXXXXXXXXXX  ",
"  .XXXXXXXoOOO++OOOOOOOO++OOOoXXXXXXXXXXXXXXXXXX  ",
"  .XXXXXXXo++++OOOOOOOOOO++++oXXXXXXXXXXXXXXXXXX  ",
"  .XXXXXXXXo+++OOOOooOOOO+++oXXXXXXXXXXXXXXXXXXX  ",
"  .XXXXXXXXXo+OOOOOOOOOOOO+oXXXXXXXXXXXXXXXXXXXX  ",
"  .XXXXXXXXXXooooooooooooooXXXXXXXXXXXXXXXXXXXXX  ",
"  .XXXXXXXXXXXXo+++++++++++oXXXXXXXXXXXXXXXXXXXX  ",
"  .XXXXXXXXXXXoOOOOOOOOOO+++oXXXXXXXXXXXXXXXXXXX  ",
"  .XXXXXXXXXXoOOOOOOOOOOOO+++oXXXXXXXXXXXXXXXXXX  ",
"  .XXXXXXXXXXoOOOOOOOOOOOOO+++oXXXXXXXXXXXXXXXXX  ",
"  .XXXXXXXXXXoOOOOOOOOOOOOOO+++oXXXXXXXXXXXXXXXX  ",
"  .XXXXXXXXXXoOOOOOOOOOOOOOOO+++oXXXXXXooXXXXXXX  ",
"  .XXXXXXXXXXoOOOOOOOOOOOOOOOO+++oXXXXo++oXXXXXX  ",
"  .XXXXXXXXXXoOOOOOOOOOOOOOOOOO++oXXXXo+++oXXXXX  ",
"  .XXXXXXXXXXXoOOOOOOOOOoOOOOOOO++oXXXo++++oXXXX  ",
"  .XXXXXXXXXXXoOOOOOOOOOoOOOOOOO++oXXXXo+++oXXXX  ",
"  .XXXXXXXXXXXoOOOOoOOOOoOOOOOOO++oXXXXo+++oXXXX  ",
"  .XXXXXXXXXXXoOOOOoOOOOoOOOOOOO++oXXXXo+++oXXXX  ",
"  .XXXXXXXXXXXoOOOOoOOOOoOOOOOOO++oXXXXo+++oXXXX  ",
"  .XXXXXXXXXXXoOOOOoOOOOoOOOOOOO++oXXXo+++oXXXXX  ",
"  .XXXXXXXXXXXoOOOOoOOOOoOOOOOOO++oXXXo+++oXXXXX  ",
"  .XXXXXXXXXXXXoOOOoOOOoOOOOOOOO++oXXo+++oXXXXXX  ",
"  .XXXXXXXXXXXXoOOOoOOOoOOOOOOOO++ooo++++oXXXXXX  ",
"  .XXXXXXXXXXXXoOOOoOOOoOOOOOOOO++o+++++oXXXXXXX  ",
"  .XXXXXXXXXXXXoOOOoOOOoOOOOOOO+++o++oooXXXXXXXX  ",
"  .XXXXXXXXXXXXoOOOoOOOoOOOOOO+++ooooXXXXXXXXXXX  ",
"  .X. XXXXXXXXXXoooXoooooooooooooXXXXXXXXXXX. XX  ",
"  .X  XXXXXXXXXXXXXXXXXXXXXXXXXXXXXXXXXXXXXX  XX  ",
"  .XXXXXXXXXXXXXXXXXXXXXXXXXXXXXXXXXXXXXXXXXXXXX  ",
"   XXXXXXXXXXXXXXXXXXXXXXXXXXXXXXXXXXXXXXXXXXXX   ",
"                                                  ",
"                                                  "
};
