/* XPM */
static char *_e3ae33f7e6b4383b663394fb410ff52ckvFwB2mm7ypVIKs[] = {
/* columns rows colors chars-per-pixel */
"50 50 10 1 ",
"  c #484A50",
". c #C4CDE2",
"X c #898F9D",
"o c #2E3136",
"O c #E0E5F1",
"+ c #B5BCCC",
"@ c white",
"# c #ACCE78",
"$ c #7397CF",
"% c #B0CBEA",
/* pixels */
"                                                  ",
"                                                  ",
"   ............................................   ",
"  .XXXXXXXXXXXXXXXXXXXXXXXXXXXXXXXXXXXXXXXXXXXXX  ",
"  .X. XXXXXXXXXXXXXXXXXXXXXXXXXXXXXXXXXXXXXX. XX  ",
"  .X  XXXXXXXXXXXXXXXXXXXXXXXXXXXXXXXXXXXXXX  XX  ",
"  .XXXXXXXXXXXXXXXXXXXXXXXXXXXXXXXXXXXXXXXXXXXXX  ",
"  .XXXXXXXXooXXXXXXXXXXXXXXooXXXXXXXXXXXXXXXXXXX  ",
"  .XXXXXXXoO+oXXXXXXXXXXXXo+OoXXXXXXXXXXXXXXXXXX  ",
"  .XXXXXXXoOO+oXXXXXXXXXXo+OOoXXXXXXXXXXXXXXXXXX  ",
"  .XXXXXXXoOOO+oooooooooo+OOOoXXXXXXXXXXXXXXXXXX  ",
"  .XXXXXXXoOO++++++++++++++OOoXXXXXXXXXXXXXXXXXX  ",
"  .XXXXXXXo+++++++OOOO+++++++oXXXXXXXXXXXXXXXXXX  ",
"  .XXXXXXXo++++++OOOOOO++++++oXXXXXXXXXXXXXXXXXX  ",
"  .XXXXXXXo++++ooOOOOOOoo++++oXXXXXXXXXXXXXXXXXX  ",
"  .XXXXXXXo++++@#OOOOOO@#++++oXXXXXXXXXXXXXXXXXX  ",
"  .XXXXXXXo+++O##OO++OO##O+++oXXXXXXXXXXXXXXXXXX  ",
"  .XXXXXXXo++OOOOOO++OOOOOO++oXXXXXXXXXXXXXXXXXX  ",
"  .XXXXXXXo+OOOOOOOooOOOOOOO+oXXXXXXXXXXXXXXXXXX  ",
"  .XXXXXXXoOOO++OOOOOOOO++OOOoXXXXXXXXXXXXXXXXXX  ",
"  .XXXXXXXo++++OOoooooOOO++++oXXXXXXXXXXXXXXXXXX  ",
"  .XXXXXXXXo+++oo$$$$$ooO+++oXXXXXXXXXXXXXXXXXXX  ",
"  .XXXXXXXXXo+o$$$$$o$$%oO+oXXXXXXXXXXXXXXXXXXXX  ",
"  .XXXXXXXXXXo$$$$$o$$$$%ooXXXXXXXXXXXXXXXXXXXXX  ",
"  .XXXXXXXXXXo%$$$$$$$$$%o+oXXXXXXXXXXXXXXXXXXXX  ",
"  .XXXXXXXXXXo$%%%%%%%%%%o++oXXXXXXXXXXXXXXXXXXX  ",
"  .XXXXXXXXXXo$$$$$$$$$$%o+++oXXXXXXXXXXXXXXXXXX  ",
"  .XXXXXXXXXXo%$$$$$$$%$%oO+++oXXXXXXXXXXXXXXXXX  ",
"  .XXXXXXXXXXo$%$$%$$$$%%oOO+++oXXXXXXXXXXXXXXXX  ",
"  .XXXXXXXXXXo$$$$$%$$$$%oOOO+++oXXXXXXooXXXXXXX  ",
"  .XXXXXXXXXXo$$$$$$$$$$%oOOOO+++oXXXXo++oXXXXXX  ",
"  .XXXXXXXXXXoo$$$$$$$$%oOOOOOO++oXXXXo+++oXXXXX  ",
"  .XXXXXXXXXXXo$$%$$$%$%oOOOOOOO++oXXXo++++oXXXX  ",
"  .XXXXXXXXXXXo$$$%$$$%%oOOOOOOO++oXXXXo+++oXXXX  ",
"  .XXXXXXXXXXXo%$$$$$$$%oOOOOOOO++oXXXXo+++oXXXX  ",
"  .XXXXXXXXXXXoo%$$$$$%ooOOOOOOO++oXXXXo+++oXXXX  ",
"  .XXXXXXXXXXXoo$$%$$$%ooOOOOOOO++oXXXXo+++oXXXX  ",
"  .XXXXXXXXXXXoOo$$%$%oOoOOOOOOO++oXXXo+++oXXXXX  ",
"  .XXXXXXXXXXXoOOo$$$oOOoOOOOOOO++oXXXo+++oXXXXX  ",
"  .XXXXXXXXXXXXoo$$$$%ooOOOOOOOO++oXXo+++oXXXXXX  ",
"  .XXXXXXXXXXXXo$$%$%$%oOOOOOOOO++ooo++++oXXXXXX  ",
"  .XXXXXXXXXXXo$$%$%$%$%oOOOOOOO++o+++++oXXXXXXX  ",
"  .XXXXXXXXXXXo$%$$%$$$%oOOOOOO+++o++oooXXXXXXXX  ",
"  .XXXXXXXXXXXXo$$$%$$%oOOOOOO+++ooooXXXXXXXXXXX  ",
"  .X. XXXXXXXXXXoo$$$ooooooooooooXXXXXXXXXXX. XX  ",
"  .X  XXXXXXXXXXXXoooXXXXXXXXXXXXXXXXXXXXXXX  XX  ",
"  .XXXXXXXXXXXXXXXXXXXXXXXXXXXXXXXXXXXXXXXXXXXXX  ",
"   XXXXXXXXXXXXXXXXXXXXXXXXXXXXXXXXXXXXXXXXXXXX   ",
"                                                  ",
"                                                  "
};
