/* XPM */
static char *_33847a34b8d47f1849684340c9909e9QjjnyVxGskd7sLhH[] = {
/* columns rows colors chars-per-pixel */
"50 50 8 1 ",
"  c #2E3136",
". c #484A50",
"X c #ACCE78",
"o c #898F9D",
"O c #B5BCCC",
"+ c #C4CDE2",
"@ c #E0E5F1",
"# c white",
/* pixels */
"..................................................",
"..................................................",
"...++++++++++++++++++++++++++++++++++++++++++++...",
"..+ooooooooooooooooooooooooooooooooooooooooooooo..",
"..+o+.oooooooooooooooooooooooooooooooooooooo+.oo..",
"..+o..oooooooooooooooooooooooooooooooooooooo..oo..",
"..+ooooooooooooooooooooooooooooooooooooooooooooo..",
"..+ooooooooooooooooooooooooooooooooooooooooooooo..",
"..+ooooooooooooooooooooooooooooooooooooooooooooo..",
"..+oooooo................................ooooooo..",
"..+oooooo..+++++++++++++++++++++++++++++.ooooooo..",
"..+oooooo.+..............................ooooooo..",
"..+oooooo.+..............................ooooooo..",
"..+oooooo.+..............................ooooooo..",
"..+oooooo.+..............................ooooooo..",
"..+oooooo.+..............................ooooooo..",
"..+oooooo.+..............................ooooooo..",
"..+oooooo.+..............................ooooooo..",
"..+oooooo.+..............................ooooooo..",
"..+oooooo.+..............................ooooooo..",
"..+oooooo.+..............................ooooooo..",
"..+oooooo.+...........oooooo.............ooooooo..",
"..+oooooo.+..........ooooooo.............ooooooo..",
"..+oooooo.+..........o...................ooooooo..",
"..+oooooo.+..........o...................ooooooo..",
"..+oooooo.+..........ooooo...............ooooooo..",
"..+oooooo.+..........ooooo...............ooooooo..",
"..+oooooo.+..........o...................ooooooo..",
"..+oooooo.+...  .....o........  .........ooooooo..",
"..+oooooo.+.. @O ....ooooooo. O@ ........ooooooo..",
"..+oooooo.+.. @@O ....oooooo O@@ ........ooooooo..",
"..+oooooo.+.. @@@O          O@@@ ........ooooooo..",
"..+oooooo.+.. @@OOOOOOOOOOOOOO@@ ........ooooooo..",
"..+oooooo.+.. OOOOOOO@@@@OOOOOOO ........ooooooo..",
"..+oooooo.+.. OOOOOO@@@@@@OOOOOO ........ooooooo..",
"..+oooooo.+.. OOOO  @@@@@@  OOOO ........ooooooo..",
"..+oooooo.+.. OOOO#X@@@@@@#XOOOO ........ooooooo..",
"..+oooooo.+.. OOO@XX@@OO@@XX@OOO ........ooooooo..",
"..+oooooo.+.. OO@@@@@@OO@@@@@@OO ........ooooooo..",
"..+oooooo.+.. O@@@@@@@  @@@@@@@O ........ooooooo..",
"..+oooooo.... @@@OO@@@@@@@@OO@@@ ........ooooooo..",
"..+ooooooooooooooooooooooooooooooooooooooooooooo..",
"..+ooooooooooooooooooooooooooooooooooooooooooooo..",
"..+ooooooooooooooooooooooooooooooooooooooooooooo..",
"..+o+.oooooooooooooooooooooooooooooooooooooo+.oo..",
"..+o..oooooooooooooooooooooooooooooooooooooo..oo..",
"..+ooooooooooooooooooooooooooooooooooooooooooooo..",
"...oooooooooooooooooooooooooooooooooooooooooooo...",
"..................................................",
".................................................."
};
