/* XPM */
static char *fce1f33d623d4810e06ffe7e0542460cO5J0Mj19kLlZQInD[] = {
/* columns rows colors chars-per-pixel */
"50 50 8 1 ",
"  c #2E3136",
". c #484A50",
"X c #ACCE78",
"o c #898F9D",
"O c #B5BCCC",
"+ c #C4CDE2",
"@ c #E0E5F1",
"# c white",
/* pixels */
"..................................................",
"..................................................",
"...++++++++++++++++++++++++++++++++++++++++++++...",
"..+ooooooooooooooooooooooooooooooooooooooooooooo..",
"..+o+.oooooooooooooooooooooooooooooooooooooo+.oo..",
"..+o..oooooooooooooooooooooooooooooooooooooo..oo..",
"..+ooooooooooooooooooooooooooooooooooooooooooooo..",
"..+oooooooo  oooooooooooooo  ooooooooooooooooooo..",
"..+ooooooo @O oooooooooooo O@ oooooooooooooooooo..",
"..+oooooo. @@O .......... O@@ ...........ooooooo..",
"..+oooooo. @@@O          O@@@ ++++++++++.ooooooo..",
"..+oooooo. @@OOOOOOOOOOOOOO@@ ...........ooooooo..",
"..+oooooo. OOOOOOO@@@@OOOOOOO ...........ooooooo..",
"..+oooooo. OOOOOO@@@@@@OOOOOO ...........ooooooo..",
"..+oooooo. OOOO  @@@@@@  OOOO ...........ooooooo..",
"..+oooooo. OOOO#X@@@@@@#XOOOO ...........ooooooo..",
"..+oooooo. OOO@XX@@OO@@XX@OOO ...........ooooooo..",
"..+oooooo. OO@@@@@@OO@@@@@@OO ...........ooooooo..",
"..+oooooo. O@@@@@@@  @@@@@@@O ...........ooooooo..",
"..+oooooo. @@@OO@@@@@@@@OO@@@ ...........ooooooo..",
"..+oooooo. OOOO@@@@@@@@@@OOOO ...........ooooooo..",
"..+oooooo.+ OOO@@@@  @@@@OOO ............ooooooo..",
"..+oooooo.+. O@@@@@@@@@@@@O o............ooooooo..",
"..+oooooo.+..              oo............ooooooo..",
"..+oooooo.+.... OOOOOOOOOOO .............ooooooo..",
"..+oooooo.+... @@@@@@@@@@OOO ............ooooooo..",
"..+oooooo.+.. @@@@@@@@@@@@OOO ...........ooooooo..",
"..+oooooo.+.. @@@@@@@@@@@@@OOO ..........ooooooo..",
"..+oooooo.+.. @@@@@@@@@@@@@@OOO .........ooooooo..",
"..+oooooo.+.. @@@@@@@@@@@@@@@OOO ......  ooooooo..",
"..+oooooo.+.. @@@@@@@@@@@@@@@@OOO .... OO oooooo..",
"..+oooooo.+.. @@@@@@@@@@@@@@@@@OO .... OOO ooooo..",
"..+oooooo.+... @@@@@@@@@ @@@@@@@OO ... OOOO oooo..",
"..+oooooo.+... @@@@@@@@@ @@@@@@@OO .... OOO oooo..",
"..+oooooo.+... @@@@ @@@@ @@@@@@@OO .... OOO oooo..",
"..+oooooo.+... @@@@ @@@@ @@@@@@@OO .... OOO oooo..",
"..+oooooo.+... @@@@ @@@@ @@@@@@@OO .... OOO oooo..",
"..+oooooo.+... @@@@ @@@@ @@@@@@@OO ... OOO ooooo..",
"..+oooooo.+... @@@@ @@@@ @@@@@@@OO ... OOO ooooo..",
"..+oooooo.+.... @@@ @@@ @@@@@@@@OO .. OOO oooooo..",
"..+oooooo...... @@@ @@@ @@@@@@@@OO   OOOO oooooo..",
"..+oooooooooooo @@@ @@@ @@@@@@@@OO OOOOO ooooooo..",
"..+oooooooooooo @@@ @@@ @@@@@@@OOO OO   oooooooo..",
"..+oooooooooooo @@@ @@@ @@@@@@OOO    ooooooooooo..",
"..+o+.oooooooooo   o             ooooooooooo+.oo..",
"..+o..oooooooooooooooooooooooooooooooooooooo..oo..",
"..+ooooooooooooooooooooooooooooooooooooooooooooo..",
"...oooooooooooooooooooooooooooooooooooooooooooo...",
"..................................................",
".................................................."
};
