/* XPM */
static char *a2239e08d835465dc1b563c38f4c71aewv0zY3EmLzZZ8agP[] = {
/* columns rows colors chars-per-pixel */
"50 50 6 1 ",
"  c None",
". c #2E3136",
"X c #ACCE78",
"o c #B5BCCC",
"O c #E0E5F1",
"+ c white",
/* pixels */
"                                                  ",
"                                                  ",
"                                                  ",
"                                                  ",
"                                                  ",
"                                                  ",
"                                                  ",
"           ..              ..                     ",
"          .Oo.            .oO.                    ",
"          .OOo.          .oOO.                    ",
"          .OOOo..........oOOO.                    ",
"          .OOooooooooooooooOO.                    ",
"          .oooooooOOOOooooooo.                    ",
"          .ooooooOOOOOOoooooo.                    ",
"          .oooo..OOOOOO..oooo.                    ",
"          .oooo+XOOOOOO+Xoooo.                    ",
"          .oooOXXOOooOOXXOooo.                    ",
"          .ooOOOOOOooOOOOOOoo.                    ",
"          .oOOOOOOO..OOOOOOOo.                    ",
"          .OOOooOOOOOOOOooOOO.                    ",
"          .ooooOOOOOOOOOOoooo.                    ",
"           .oooOOOO..OOOOooo.                     ",
"            .oOOOOOOOOOOOOo.                      ",
"             ..............                       ",
"               .ooooooooooo.                      ",
"              .OOOOOOOOOOooo.                     ",
"             .OOOOOOOOOOOOooo.                    ",
"             .OOOOOOOOOOOOOooo.                   ",
"             .OOOOOOOOOOOOOOooo.                  ",
"             .OOOOOOOOOOOOOOOooo.      ..         ",
"             .OOOOOOOOOOOOOOOOooo.    .oo.        ",
"             .OOOOOOOOOOOOOOOOOoo.    .ooo.       ",
"              .OOOOOOOOO.OOOOOOOoo.   .oooo.      ",
"              .OOOOOOOOO.OOOOOOOoo.    .ooo.      ",
"              .OOOO.OOOO.OOOOOOOoo.    .ooo.      ",
"              .OOOO.OOOO.OOOOOOOoo.    .ooo.      ",
"              .OOOO.OOOO.OOOOOOOoo.    .ooo.      ",
"              .OOOO.OOOO.OOOOOOOoo.   .ooo.       ",
"              .OOOO.OOOO.OOOOOOOoo.   .ooo.       ",
"               .OOO.OOO.OOOOOOOOoo.  .ooo.        ",
"               .OOO.OOO.OOOOOOOOoo...oooo.        ",
"               .OOO.OOO.OOOOOOOOoo.ooooo.         ",
"               .OOO.OOO.OOOOOOOooo.oo...          ",
"               .OOO.OOO.OOOOOOooo....             ",
"                ... .............                 ",
"                                                  ",
"                                                  ",
"                                                  ",
"                                                  ",
"                                                  "
};
