/* XPM */
static char *bd686a8f688c4684fc8a4b668a284679QCpwqlyBjkScWWzo[] = {
/* columns rows colors chars-per-pixel */
"50 50 3 1 ",
"  c #484A50",
". c #7F8592",
"X c #282A2E",
/* pixels */
"                                                  ",
"                                                  ",
"   ............   ..............   ............   ",
"  .XXXXXXXXXXXXX .XXXXXXXXXXXXXXX .XXXXXXXXXXXXX  ",
"  .XXXXXXXXXXXXX .XXXXXXXXXXXXXXX .XXXXXXXXXXXXX  ",
"  .XXXXXXXXXXXXX .XXXXXXXXXXXXXXX .XXXXXXXXXXXXX  ",
"  .XXXXXXXXXXXXX .XXXXXXXXXXXXXXX .XXXXXXXXXXXXX  ",
"  .XXXXXXXXXXXXX .XXXXXXXXXXXXXXX .XXXXXXXXXXXXX  ",
"  .XXXXXXXXXXXXX .XXXXXXXXXXXXXXX .XXXXXXXXXXXXX  ",
"  .XXXXXXXXXXXXX .XXXXXXXXXXXXXXX .XXXXXXXXXXXXX  ",
"  .XXXXXXXXXXXXX .XXXXXXXXXXXXXXX .XXXXXXXXXXXXX  ",
"   XXXXXXXXXXXX   XXXXXXXXXXXXXX   XXXXXXXXXXXX   ",
"                                                  ",
"   ...................   ......................   ",
"  .XXXXXXXXXXXXXXXXXXXX .XXXXXXXXXXXXXXXXXXXXXXX  ",
"  .XXXXXXXXXXXXXXXXXXXX .XXXXXXXXXXXXXXXXXXXXXXX  ",
"  .XXXXXXXXXXXXXXXXXXXX .XXXXXXXXXXXXXXXXXXXXXXX  ",
"  .XXXXXXXXXXXXXXXXXXXX .XXXXXXXXXXXXXXXXXXXXXXX  ",
"  .XXXXXXXXXXXXXXXXXXXX .XXXXXXXXXXXXXXXXXXXXXXX  ",
"  .XXXXXXXXXXXXXXXXXXXX .XXXXXXXXXXXXXXXXXXXXXXX  ",
"  .XXXXXXXXXXXXXXXXXXXX .XXXXXXXXXXXXXXXXXXXXXXX  ",
"  .XXXXXXXXXXXXXXXXXXXX .XXXXXXXXXXXXXXXXXXXXXXX  ",
"  .XXXXXXXXXXXXXXXXXXXX .XXXXXXXXXXXXXXXXXXXXXXX  ",
"   XXXXXXXXXXXXXXXXXXX   XXXXXXXXXXXXXXXXXXXXXX   ",
"                                                  ",
"   .......   ...............   ................   ",
"  .XXXXXXXX .XXXXXXXXXXXXXXXX .XXXXXXXXXXXXXXXXX  ",
"  .XXXXXXXX .XXXXXXXXXXXXXXXX .XXXXXXXXXXXXXXXXX  ",
"  .XXXXXXXX .XXXXXXXXXXXXXXXX .XXXXXXXXXXXXXXXXX  ",
"  .XXXXXXXX .XXXXXXXXXXXXXXXX .XXXXXXXXXXXXXXXXX  ",
"  .XXXXXXXX .XXXXXXXXXXXXXXXX .XXXXXXXXXXXXXXXXX  ",
"  .XXXXXXXX .XXXXXXXXXXXXXXXX .XXXXXXXXXXXXXXXXX  ",
"  .XXXXXXXX .XXXXXXXXXXXXXXXX .XXXXXXXXXXXXXXXXX  ",
"  .XXXXXXXX .XXXXXXXXXXXXXXXX .XXXXXXXXXXXXXXXXX  ",
"   XXXXXXX   XXXXXXXXXXXXXXX   XXXXXXXXXXXXXXXX   ",
"                                                  ",
"   ...............   ................   .......   ",
"  .XXXXXXXXXXXXXXXX .XXXXXXXXXXXXXXXXX .XXXXXXXX  ",
"  .XXXXXXXXXXXXXXXX .XXXXXXXXXXXXXXXXX .XXXXXXXX  ",
"  .XXXXXXXXXXXXXXXX .XXXXXXXXXXXXXXXXX .XXXXXXXX  ",
"  .XXXXXXXXXXXXXXXX .XXXXXXXXXXXXXXXXX .XXXXXXXX  ",
"  .XXXXXXXXXXXXXXXX .XXXXXXXXXXXXXXXXX .XXXXXXXX  ",
"  .XXXXXXXXXXXXXXXX .XXXXXXXXXXXXXXXXX .XXXXXXXX  ",
"  .XXXXXXXXXXXXXXXX .XXXXXXXXXXXXXXXXX .XXXXXXXX  ",
"  .XXXXXXXXXXXXXXXX .XXXXXXXXXXXXXXXXX .XXXXXXXX  ",
"  .XXXXXXXXXXXXXXXX .XXXXXXXXXXXXXXXXX .XXXXXXXX  ",
"  .XXXXXXXXXXXXXXXX .XXXXXXXXXXXXXXXXX .XXXXXXXX  ",
"   XXXXXXXXXXXXXXX   XXXXXXXXXXXXXXXX   XXXXXXX   ",
"                                                  ",
"                                                  "
};
